<?xml version="1.0" standalone="no"?>
<svg viewBox="0 0 200 200" xmlns="http://www.w3.org/2000/svg">
  <path fill="#F2F4F8" d="M46.5,-72.7C59.8,-63.9,69.7,-50.1,77.2,-34.9C84.7,-19.7,89.9,-3,88.7,13.5C87.5,30,79.9,46.4,68.6,59.5C57.3,72.6,42.2,82.5,25.7,87.2C9.2,91.8,-8.7,91.3,-24.8,85.9C-40.8,80.5,-55,70.2,-65,57.2C-75,44.1,-80.8,28.3,-84.2,11.5C-87.5,-5.2,-88.3,-23,-82.1,-37.9C-75.8,-52.7,-62.6,-64.8,-47.8,-73C-32.9,-81.1,-16.5,-85.3,0.1,-85.4C16.6,-85.6,33.3,-81.6,46.5,-72.7Z" transform="translate(100 100)" />
</svg>
